<svg width="47" height="43" viewBox="0 0 47 43" fill="none" xmlns="http://www.w3.org/2000/svg">
<path d="M44.0176 0H2.78479C2.10899 0 1.46087 0.244061 0.983014 0.678491C0.505154 1.11292 0.236694 1.70213 0.236694 2.31651V39.8019C0.236694 40.4163 0.505154 41.0055 0.983014 41.4399C1.46087 41.8743 2.10899 42.1184 2.78479 42.1184H24.9764V25.7975H18.9536V19.4798H24.9764V14.7414C24.8516 13.629 24.9961 12.5052 25.3996 11.4489C25.8032 10.3926 26.456 9.42935 27.3124 8.62672C28.1688 7.82408 29.208 7.20149 30.3571 6.80262C31.5062 6.40376 32.7373 6.23827 33.9642 6.31776C35.7672 6.30644 37.5694 6.39083 39.3615 6.57047V12.2565H35.6784C32.7596 12.2565 32.2037 13.52 32.2037 15.3522V19.4166H39.153L38.2496 25.7343H32.2037V42.1184H44.0176C44.3522 42.1184 44.6836 42.0585 44.9927 41.9421C45.3019 41.8257 45.5828 41.655 45.8194 41.4399C46.056 41.2248 46.2437 40.9694 46.3717 40.6884C46.4998 40.4073 46.5657 40.1061 46.5657 39.8019V2.31651C46.5657 2.0123 46.4998 1.71107 46.3717 1.43002C46.2437 1.14897 46.056 0.893599 45.8194 0.678491C45.5828 0.463383 45.3019 0.29275 44.9927 0.176334C44.6836 0.0599185 44.3522 0 44.0176 0Z" fill="#040404"/>
</svg>
