<svg width="47" height="43" viewBox="0 0 47 43" fill="none" xmlns="http://www.w3.org/2000/svg">
<path d="M13.7082 0H33.1664C40.579 0 46.6018 5.47539 46.6018 12.2143V29.9041C46.6018 33.1435 45.1863 36.2503 42.6667 38.5409C40.147 40.8315 36.7297 42.1184 33.1664 42.1184H13.7082C6.29559 42.1184 0.272827 36.643 0.272827 29.9041V12.2143C0.272827 8.9749 1.68834 5.86813 4.20797 3.5775C6.72759 1.28686 10.1449 0 13.7082 0ZM13.2449 4.21184C11.0332 4.21184 8.91213 5.01058 7.34823 6.43236C5.78432 7.85413 4.90573 9.78246 4.90573 11.7932V30.3253C4.90573 34.516 8.63521 37.9066 13.2449 37.9066H33.6297C35.8414 37.9066 37.9625 37.1078 39.5264 35.6861C41.0903 34.2643 41.9689 32.3359 41.9689 30.3253V11.7932C41.9689 7.60237 38.2394 4.21184 33.6297 4.21184H13.2449ZM35.5987 7.37072C36.3666 7.37072 37.1031 7.64806 37.6462 8.14173C38.1892 8.63541 38.4942 9.30497 38.4942 10.0031C38.4942 10.7013 38.1892 11.3708 37.6462 11.8645C37.1031 12.3582 36.3666 12.6355 35.5987 12.6355C34.8307 12.6355 34.0942 12.3582 33.5512 11.8645C33.0082 11.3708 32.7031 10.7013 32.7031 10.0031C32.7031 9.30497 33.0082 8.63541 33.5512 8.14173C34.0942 7.64806 34.8307 7.37072 35.5987 7.37072ZM23.4373 10.5296C26.5091 10.5296 29.4551 11.639 31.6272 13.6137C33.7993 15.5883 35.0196 18.2666 35.0196 21.0592C35.0196 23.8518 33.7993 26.5301 31.6272 28.5048C29.4551 30.4794 26.5091 31.5888 23.4373 31.5888C20.3655 31.5888 17.4195 30.4794 15.2474 28.5048C13.0753 26.5301 11.8551 23.8518 11.8551 21.0592C11.8551 18.2666 13.0753 15.5883 15.2474 13.6137C17.4195 11.639 20.3655 10.5296 23.4373 10.5296ZM23.4373 14.7414C21.5942 14.7414 19.8266 15.4071 18.5234 16.5919C17.2201 17.7767 16.488 19.3836 16.488 21.0592C16.488 22.7348 17.2201 24.3417 18.5234 25.5265C19.8266 26.7113 21.5942 27.377 23.4373 27.377C25.2804 27.377 27.048 26.7113 28.3513 25.5265C29.6545 24.3417 30.3867 22.7348 30.3867 21.0592C30.3867 19.3836 29.6545 17.7767 28.3513 16.5919C27.048 15.4071 25.2804 14.7414 23.4373 14.7414Z" fill="#040404"/>
</svg>
