<svg width="38" height="54" viewBox="0 0 38 54" fill="none" xmlns="http://www.w3.org/2000/svg">
<path d="M37.72 0H-0.280792V54H37.72V0Z" fill="#FEFEFE"/>
<path d="M35.5679 1.94885H1.68188V39.1855H35.5679V1.94885Z" fill="#014224" stroke="#373435" stroke-width="0.755905" stroke-miterlimit="22.9256"/>
<path d="M18.5844 34.2668C25.6322 34.2668 31.3456 28.7472 31.3456 21.9385C31.3456 15.1298 25.6322 9.61023 18.5844 9.61023C11.5367 9.61023 5.82329 15.1298 5.82329 21.9385C5.82329 28.7472 11.5367 34.2668 18.5844 34.2668Z" fill="#F8C301"/>
<path d="M18.5519 27.3264C23.6613 27.3264 27.8033 23.3249 27.8033 18.3888C27.8033 13.4527 23.6613 9.45117 18.5519 9.45117C13.4425 9.45117 9.30049 13.4527 9.30049 18.3888C9.30049 23.3249 13.4425 27.3264 18.5519 27.3264Z" fill="#014224"/>
<path fill-rule="evenodd" clip-rule="evenodd" d="M18.5763 3.05566L19.4196 5.57331L22.1647 5.56823L19.9407 7.11913L20.7941 9.63363L18.5763 8.0745L16.3585 9.63363L17.2118 7.11913L14.9878 5.56823L17.733 5.57331L18.5763 3.05566Z" fill="#F8C301"/>
<path fill-rule="evenodd" clip-rule="evenodd" d="M20.579 36.8229L21.1407 38.1751L21.6003 38.1713L21.5985 35.606L21.1453 35.6138L21.123 36.9779L20.5576 35.6056L20.0985 35.6154L20.0993 38.1747L20.5538 38.175L20.579 36.8229Z" fill="#F8C301"/>
<path fill-rule="evenodd" clip-rule="evenodd" d="M25.2243 35.5983L25.2419 38.1745L25.6743 38.1603L25.6817 36.8268C25.8767 37.2721 26.0453 37.728 26.2667 38.1649L26.7218 38.1751L26.7124 35.5868L26.2716 35.6081L26.2261 36.8793C26.1981 36.8432 26.2137 36.8662 26.1973 36.8404C26.182 36.8164 26.1699 36.7869 26.1569 36.7568C26.0502 36.5084 25.7585 35.7282 25.6727 35.6106L25.2243 35.5983Z" fill="#F8C301"/>
<path fill-rule="evenodd" clip-rule="evenodd" d="M30.8623 37.2668C30.9931 37.4264 31.1459 37.9375 31.2501 38.1771L31.7085 38.1654L31.7065 35.6089L31.2342 35.6095L31.2449 36.9456C31.1397 36.837 30.7306 35.8185 30.6695 35.6091L30.2142 35.5995L30.209 38.1712L30.6575 38.173L30.6676 36.8315L30.8623 37.2668Z" fill="#F8C301"/>
<path fill-rule="evenodd" clip-rule="evenodd" d="M7.51203 36.1207C7.6861 36.1205 7.76037 36.1218 7.89307 36.1565C7.98503 36.4515 8.02599 36.6673 7.49921 36.6394L7.51203 36.1207ZM7.51634 38.1721L7.50936 37.1391C7.75009 37.1532 7.77076 37.4449 7.82467 37.6134C7.88547 37.8035 7.95103 37.9781 8.01099 38.1736L8.5433 38.1729C8.50992 37.8727 8.28257 37.2278 8.09005 37.0466C8.32068 36.8235 8.42128 36.7504 8.42825 36.3586C8.43859 35.7816 8.21736 35.7671 8.15597 35.6432C7.83381 35.5809 7.38231 35.5978 7.02163 35.6084L7.01776 38.173L7.51634 38.1721Z" fill="#F8C301"/>
<path fill-rule="evenodd" clip-rule="evenodd" d="M32.4989 38.1858C32.755 38.1922 32.9369 38.2575 33.1785 38.1398C33.2625 38.0989 33.5036 37.9129 33.5482 37.8267C33.6122 37.7028 33.5821 36.9023 33.5672 36.7127L32.8278 36.7134L32.8331 37.2403L33.138 37.2491C33.177 37.5116 33.0332 37.6824 32.7748 37.6472C32.5554 37.6172 32.5045 37.3706 32.4773 37.1682C32.4485 36.9548 32.4505 36.7248 32.4889 36.5221C32.527 36.3211 32.5747 36.1269 32.8805 36.1366C33.0827 36.232 32.9917 36.2972 33.1146 36.4124L33.5281 36.2951C33.5482 36.139 33.4493 35.8693 33.3283 35.7362L33.2226 35.6319C33.2209 35.6249 33.2141 35.6231 33.2109 35.6183C32.741 35.5212 32.4635 35.5404 32.2514 35.8281C31.8708 36.3443 31.8169 37.6457 32.417 38.1206C32.4246 38.1266 32.4516 38.1476 32.4573 38.1521C32.462 38.1558 32.4747 38.1736 32.478 38.1688C32.4814 38.164 32.4924 38.1799 32.4989 38.1858Z" fill="#F8C301"/>
<path fill-rule="evenodd" clip-rule="evenodd" d="M14.3321 37.1581C14.408 37.2673 14.4283 37.4084 14.3654 37.5226C14.2956 37.6493 14.1508 37.6276 13.9376 37.6189L13.93 37.0889C14.1322 37.114 14.2253 37.0689 14.3321 37.1581ZM13.9272 36.129C14.262 36.1195 14.3514 36.1172 14.3376 36.386C14.3254 36.6223 14.2348 36.616 13.9255 36.6069L13.9272 36.129ZM14.5913 36.7987C14.8154 36.5228 14.9145 36.2189 14.7255 35.8466C14.5668 35.5341 14.168 35.5756 13.4365 35.6035L13.4397 38.1668C13.6226 38.1832 14.173 38.1888 14.3492 38.1677C14.6266 38.1344 14.7395 38.0341 14.8174 37.8408C14.8844 37.6743 14.9102 37.4362 14.8758 37.2495C14.8279 36.9899 14.7254 36.9487 14.5913 36.7987Z" fill="#F8C301"/>
<path fill-rule="evenodd" clip-rule="evenodd" d="M10.8301 36.426C10.9032 36.5275 10.9875 37.103 10.9903 37.1923L10.6667 37.1942C10.6735 37.0615 10.7034 36.9348 10.7256 36.8118L10.8301 36.426ZM11.6785 38.1879L11.1023 35.598L10.5975 35.6086C10.5096 35.7157 10.0081 37.932 9.99026 38.1748L10.4732 38.1717L10.5587 37.7564L11.1023 37.7577L11.1829 38.174L11.6785 38.1879Z" fill="#F8C301"/>
<path fill-rule="evenodd" clip-rule="evenodd" d="M19.0618 36.3362L19.2528 37.1898L18.9171 37.1937L19.0618 36.3362ZM18.3862 37.4599L18.2308 38.1732L18.7228 38.172L18.7975 37.7621L19.3554 37.7525L19.4303 38.1719L19.9415 38.1732L19.3495 35.6079L18.816 35.6106L18.3862 37.4599Z" fill="#F8C301"/>
<path fill-rule="evenodd" clip-rule="evenodd" d="M29.0297 37.1897C29.0341 36.979 29.0925 36.5118 29.1986 36.3496L29.3516 37.1908L29.0297 37.1897ZM28.6859 36.6335C28.6014 37.1218 28.3794 37.7119 28.3506 38.1749L28.8357 38.1651L28.879 37.9442L28.8988 37.7667L29.4314 37.7507C29.5098 37.8552 29.5153 38.0429 29.5433 38.1713L30.025 38.176C30.0102 37.9366 29.5079 35.7124 29.4315 35.6124C29.2637 35.6006 29.0831 35.5958 28.9236 35.6248L28.6859 36.6335Z" fill="#F8C301"/>
<path fill-rule="evenodd" clip-rule="evenodd" d="M6.00407 36.339L6.16132 37.1918L5.82777 37.1937C5.83859 36.9626 5.91534 36.5259 6.00407 36.339ZM6.31836 38.1701L6.83766 38.1759L6.25941 35.6091L5.69984 35.618C5.73587 35.8103 5.20941 37.7406 5.1445 38.1733L5.63633 38.1741L5.70836 37.7536L6.26819 37.7653L6.31836 38.1701Z" fill="#F8C301"/>
<path fill-rule="evenodd" clip-rule="evenodd" d="M4.38577 36.128C4.70743 36.1333 4.75492 36.1582 4.75429 36.4137C4.75373 36.6365 4.69633 36.699 4.38508 36.6948L4.38577 36.128ZM4.38596 37.2254C4.82445 37.2228 4.98003 37.2057 5.11367 36.9504C5.22473 36.7383 5.23362 36.4874 5.22019 36.2472C5.18222 35.5683 4.83548 35.5475 3.8956 35.6117L3.89921 38.1781L4.38301 38.165L4.38596 37.2254Z" fill="#F8C301"/>
<path fill-rule="evenodd" clip-rule="evenodd" d="M23.1488 36.127C23.4821 36.1199 23.5728 36.1217 23.5608 36.386C23.5501 36.6234 23.46 36.6179 23.1498 36.6068L23.1488 36.127ZM23.5813 37.157C23.6977 37.5309 23.6498 37.6263 23.1357 37.6215L23.1505 37.1036C23.4065 37.0977 23.4096 37.0905 23.5813 37.157ZM23.893 35.7794C23.7945 35.6148 23.7041 35.5991 23.388 35.5996C23.1641 35.6 22.8932 35.5912 22.6585 35.6056L22.6609 38.1678C23.9129 38.2697 24.2088 38.0861 24.0835 37.157C24.0489 37.0901 24.0338 37.0225 23.9799 36.9551L23.8133 36.7987C23.9653 36.6251 24.0225 36.5592 24.0372 36.3015C24.0465 36.1394 24.0274 35.8709 23.893 35.7794Z" fill="#F8C301"/>
<path fill-rule="evenodd" clip-rule="evenodd" d="M16.0298 37.5423C15.5156 37.8378 15.5713 37.1428 15.5714 36.8538C15.5715 36.4441 15.5884 36.0156 15.5658 35.6083L15.0735 35.61C15.1714 36.0156 15.0029 37.0972 15.1487 37.639C15.4101 38.6102 16.5559 38.1685 16.5037 37.7187C16.6989 37.468 16.6351 35.7933 16.5785 35.6049L16.1249 35.6028C15.9837 36.1499 16.2502 36.9956 16.0298 37.5423Z" fill="#F8C301"/>
<path fill-rule="evenodd" clip-rule="evenodd" d="M9.58046 36.2374L10.0579 36.2288C10.0646 36.067 10.0922 35.745 10.0365 35.6003L8.59178 35.6053L8.59988 36.237L9.08375 36.2439L9.09043 38.1758L9.56383 38.173L9.58046 36.2374Z" fill="#F8C301"/>
<path fill-rule="evenodd" clip-rule="evenodd" d="M27.4511 38.1881L27.9197 38.1758L27.926 36.2415L28.4164 36.2334L28.4159 35.6067L26.9502 35.5981L26.9509 36.2309L27.4435 36.238L27.4511 38.1881Z" fill="#F8C301"/>
<path fill-rule="evenodd" clip-rule="evenodd" d="M18.172 37.5367L17.4044 37.5422L17.4019 35.6071L16.939 35.6022L16.92 38.1719L18.1544 38.1761L18.172 37.5367Z" fill="#F8C301"/>
<path fill-rule="evenodd" clip-rule="evenodd" d="M24.8815 35.598L24.3927 35.6095L24.3972 38.1737L24.8716 38.1725L24.8815 35.598Z" fill="#F8C301"/>
<path fill-rule="evenodd" clip-rule="evenodd" d="M11.8747 38.1872L12.35 38.1715L12.3475 35.6071L11.8711 35.5977L11.8747 38.1872Z" fill="#F8C301"/>
<path fill-rule="evenodd" clip-rule="evenodd" d="M35.6376 49.2183V48.5787C35.5528 48.3852 35.5541 47.4278 34.8756 46.8039C34.6074 46.5573 34.526 46.4662 34.1477 46.2664C33.758 46.0605 33.5531 46.051 33.3537 45.9664L33.2533 45.9085C34.328 45.6358 35.07 44.571 35.0943 43.3925C35.1226 42.0165 34.3602 41.1298 33.4496 40.6924C32.4336 40.2044 30.6469 40.3455 29.4151 40.3455C27.9498 40.3455 26.4844 40.3455 25.0191 40.3455V52.2804C26.371 52.2804 30.8362 52.3397 31.8432 52.2273C33.3209 52.0623 34.4757 51.9331 35.2338 50.5132C35.6194 49.7907 35.5005 49.515 35.6376 49.2183Z" fill="black"/>
<path fill-rule="evenodd" clip-rule="evenodd" d="M13.1324 52.2634C13.4721 52.3109 18.4212 52.2806 19.1974 52.2804C19.9119 52.2804 21.4861 52.0805 22.0433 51.8058C22.7065 51.4789 23.292 50.8372 23.5642 50.0219C23.867 49.1152 23.7686 48.0063 23.3366 47.2722C22.9431 46.6037 22.3172 46.2316 21.3721 45.9587C21.576 45.8119 22.2095 45.6728 22.6521 45.0605C23.7622 43.5242 23.1304 41.3947 21.5481 40.7161C20.4438 40.2425 18.803 40.3825 17.5004 40.3825C16.8895 40.3825 13.4261 40.3416 13.1324 40.3982V52.2634Z" fill="black"/>
<path fill-rule="evenodd" clip-rule="evenodd" d="M1.6499 52.3006H5.23212L5.21166 47.8888C6.29244 47.7346 7.85599 48.1153 9.27589 47.533C11.9731 46.4268 11.7062 42.862 10.6574 41.5911C9.96494 40.7521 9.00058 40.3826 7.4595 40.3826H1.6499V52.3006Z" fill="black"/>
<path fill-rule="evenodd" clip-rule="evenodd" d="M16.7099 49.724C17.3843 49.724 18.3944 49.7812 19.0251 49.6931C19.716 49.5966 20.1633 49.2589 20.1858 48.5352C20.2345 46.9653 18.084 47.3134 16.7152 47.3134L16.7099 49.724Z" fill="#FEFEFE"/>
<path fill-rule="evenodd" clip-rule="evenodd" d="M28.5968 49.5839L28.6039 49.7161C29.2382 49.7159 29.881 49.7273 30.5118 49.7146C31.1433 49.7018 31.616 49.5613 31.8734 49.1829C32.1711 48.7452 32.1283 48.1143 31.8202 47.7281C31.5525 47.3929 30.92 47.298 30.3343 47.298H28.5975L28.5968 49.5839Z" fill="#FEFEFE"/>
<path fill-rule="evenodd" clip-rule="evenodd" d="M5.21127 45.4454C5.59491 45.5281 6.72501 45.4483 7.08688 45.3319C7.57733 45.1742 7.94184 44.7536 7.93444 44.1257C7.92697 43.4915 7.59136 43.082 7.11853 42.9244C6.7382 42.7977 5.63198 42.7567 5.21658 42.816L5.21127 45.4454Z" fill="#FEFEFE"/>
<path fill-rule="evenodd" clip-rule="evenodd" d="M28.5975 45.0282C29.9599 45.0282 31.585 45.3312 31.6189 43.9166C31.6353 43.2296 31.2714 42.8907 30.6497 42.7956C30.0968 42.7111 29.1913 42.7629 28.5985 42.7629L28.5975 45.0282Z" fill="#FEFEFE"/>
<path fill-rule="evenodd" clip-rule="evenodd" d="M16.7101 45.0507H18.1721C19.0827 45.0507 19.7054 44.868 19.7317 43.9518C19.7586 43.0149 19.1088 42.7924 18.2075 42.7924H16.7226L16.7101 45.0507Z" fill="#FEFEFE"/>
</svg>
