<svg width="41" height="42" viewBox="0 0 41 42" fill="none" xmlns="http://www.w3.org/2000/svg">
<path d="M32.1756 6.74434C30.4495 4.97701 29.4981 2.70776 29.4983 0.358643H21.6937V28.4376C21.6348 29.9574 20.9197 31.3974 19.6992 32.4535C18.4787 33.5097 16.8483 34.0996 15.152 34.0987C11.5655 34.0987 8.58508 31.4719 8.58508 28.2111C8.58508 24.3163 12.7778 21.3952 17.0969 22.5954V15.4397C8.38303 14.3981 0.755249 20.4668 0.755249 28.2111C0.755249 35.7517 7.72633 41.1184 15.1268 41.1184C23.0577 41.1184 29.4983 35.3441 29.4983 28.2111V13.9679C32.6631 16.0055 36.4627 17.0988 40.3591 17.0928V10.0957C40.3591 10.0957 35.6106 10.2995 32.1756 6.74434Z" fill="#040404"/>
</svg>
