<svg width="58" height="42" viewBox="0 0 58 42" fill="none" xmlns="http://www.w3.org/2000/svg">
<path fill-rule="evenodd" clip-rule="evenodd" d="M29.1143 0C31.5421 0 34.0324 0.056979 36.446 0.150217L39.2968 0.274534L42.0256 0.422161L44.5812 0.580147L46.9153 0.745904C49.4487 0.921738 51.8328 1.90732 53.6476 3.52906C55.4625 5.1508 56.5918 7.30466 56.8366 9.61128L56.9501 10.712L57.1631 13.0688C57.3619 15.5112 57.5095 18.1736 57.5095 20.7195C57.5095 23.2655 57.3619 25.9279 57.1631 28.3702L56.9501 30.7271L56.8366 31.8278C56.5917 34.1348 55.462 36.289 53.6466 37.9108C51.8311 39.5326 49.4463 40.5179 46.9124 40.6932L44.584 40.8563L42.0285 41.0169L39.2968 41.1645L36.446 41.2889C34.0035 41.3854 31.5591 41.4354 29.1143 41.4391C26.6696 41.4354 24.2252 41.3854 21.7827 41.2889L18.9318 41.1645L16.203 41.0169L13.6475 40.8563L11.3134 40.6932C8.78001 40.5173 6.39591 39.5318 4.58102 37.91C2.76612 36.2883 1.63685 34.1344 1.39211 31.8278L1.27853 30.7271L1.06557 28.3702C0.84929 25.8246 0.733741 23.2727 0.719147 20.7195C0.719147 18.1736 0.866802 15.5112 1.06557 13.0688L1.27853 10.712L1.39211 9.61128C1.63676 7.30507 2.76562 5.15153 4.57994 3.52985C6.39425 1.90816 8.77768 0.922321 11.3106 0.745904L13.6418 0.580147L16.1974 0.422161L18.929 0.274534L21.7799 0.150217C24.2233 0.0536823 26.6686 0.00359893 29.1143 0ZM23.4353 14.4389V27.0002C23.4353 28.1967 24.8551 28.9426 25.9909 28.3469L37.9168 22.0663C38.1763 21.9301 38.3919 21.7338 38.5418 21.4974C38.6917 21.261 38.7706 20.9927 38.7706 20.7195C38.7706 20.4464 38.6917 20.1781 38.5418 19.9417C38.3919 19.7053 38.1763 19.509 37.9168 19.3728L25.9909 13.0947C25.7318 12.9583 25.4379 12.8865 25.1387 12.8866C24.8396 12.8866 24.5457 12.9585 24.2867 13.095C24.0276 13.2315 23.8126 13.4278 23.6631 13.6642C23.5137 13.9006 23.4351 14.1687 23.4353 14.4415V14.4389Z" fill="#040404"/>
</svg>
